/* XPM */
static char *result[] = {
/* columns rows colors chars-per-pixel */
"32 32 6 1 ",
"  c black",
". c #242A3D",
"X c #414B66",
"o c #677598",
"O c #8F9AB0",
"+ c None",
/* pixels */
"+    ++   +    +   ++     +    +",
" oooX  XXX oooX ooX  XoooX oooX ",
"ooooo XoooXooooXooo XoooooXooooX",
"oooooXoooooooooXoooXoooooooooooX",
"Xoooo.oooooOooo.Xoo.oooooooOooo.",
"oooooXooOOoXOOXoooXXooOOOOoXOOXo",
"OOOooXoOooO.XXOOoooXoOooooO.XXOO",
"oooo..Xoooo...oooo..Xoooooo...oo",
"oXXXX.oooXXo.oooXXX.ooooXXXo.ooo",
"XXXXX.oXXXXX.ooXXXX.oXXXXXXX.ooo",
"XXXXX.XoXXXX.XXoXXX.XoXXXXXX.XXX",
"XXXX...XXXX...XXXX...XXXXXX...XX",
" .......oooX...........ooooX....",
" ooo...ooXXo.Xooooo...oooXXo.Xoo",
"ooooo.oXXoXXXooooooo.oXXXoXXXooo",
"oXXXo.XXXXXXoooXXXXo.XXXXXXXoooX",
"XXXXX.XXXXX.oXXXXXXX.XXXXXX.oXXX",
"XXXX.........XXXXXX..........XXX",
" ooooooo..XooooX..oooooo..XooooX",
"oooXXXXoo.oooXXo.oooXXXoo.oooXXo",
"oXXXXXoXX.oXXXXX.oXXXXoXX.oXXXXX",
"XXXXXXXXX..XXXX..XXXXXXXX..XXXX.",
" XXXXXXX..........XXXXXX........",
"oooo..Xoooo...oooo..Xoooooo...oo",
"oXXXX.oooXXo.oooXXX.ooooXXXo.ooo",
"XXXXX.oXXXXX.ooXXXX.oXXXXXXX.ooo",
"XXXXX.XoXXXX.XXoXXX.XoXXXXXX.XXX",
"XXXX...XXXX...XXXX...XXXXXX...XX",
" .......oooX...........ooooX....",
" ooo...ooXXo.Xooooo...oooXXo.Xoo",
"ooooo.oXXoXXXooooooo.oXXXXXXXooo",
"oXXXo.XXXXXXoooXXXXo.XXXXXXXoooX"
};
