/* XPM */
static char *_7c378ec5d8e4b36cb291b780aa14d18dm4n8voEXAFKrGe2[] = {
/* columns rows colors chars-per-pixel */
"32 32 12 1 ",
"  c None",
". c black",
"X c #0C0E1A",
"o c #21110D",
"O c #402717",
"+ c #573A23",
"@ c #AC7B5D",
"# c #1D438A",
"$ c #2C65B5",
"% c #787E97",
"& c #A4A8B5",
"* c #C1AC8F",
/* pixels */
"                                ",
"                                ",
"                                ",
"                                ",
"                                ",
"                                ",
"                                ",
"           .... ..              ",
"           .++O.+...            ",
"           ..++O+++O.           ",
"          .O++++++++.           ",
"         .O++++O++++O.          ",
"         .+++OOOO++++.          ",
"         .+++O@@@@O++.          ",
"         .++O@@@@@@O+.          ",
"         .O+@o***o@O.           ",
"          .+*o***o**.           ",
"          .@*******@.           ",
"           .@*****@.            ",
"           .O@@@@@O.            ",
"           .O+%%%+O.            ",
"           .++%&&++.            ",
"          .**+$$$+**.           ",
"          .**$$#$$**.           ",
"          X.$$#.#$$.X           ",
"         XX.O+.X.+O.XX          ",
"         XXXXXXXXXXXXX          ",
"          XXXXXXXXXXX           ",
"                                ",
"                                ",
"                                ",
"                                "
};
