/* XPM */
static char *result[] = {
/* columns rows colors chars-per-pixel */
"32 32 4 1 ",
"  c #BFA100",
". c gold",
"X c white",
"o c None",
/* pixels */
"ooooooooooooooo  ooooooooooooooo",
"oooooooooooooo X. oooooooooooooo",
"oooooooooooooo .. oooooooooooooo",
"oooooooooooooo .X oooooooooooooo",
"oooooooooooooo .. oooooooooooooo",
"oooooooooooooo .X oooooooooooooo",
"oooooooooooooo .X oooooooooooooo",
"oooooooooooooo .. oooooooooooooo",
"oooooooooooooo .. oooooooooooooo",
"oooooooooooooo .. oooooooooooooo",
"oooooooooooooo .. oooooooooooooo",
"oooooooooooooo .. oooooooooooooo",
"oooooooooooooo .. oooooooooooooo",
"oooooooooooooo .. oooooooooooooo",
"oooooooooooooo .. oooooooooooooo",
"oooooooooooooo .. oooooooooooooo",
"oooooooooooooo .. oooooooooooooo",
"oooooooooooooo .. oooooooooooooo",
"oooooooooooooo .. oooooooooooooo",
"oooooooooooooo .. oooooooooooooo",
"oooooooooooooo .. oooooooooooooo",
"oooooooooooooo .. oooooooooooooo",
"oooooooooooooo .. oooooooooooooo",
"oooooooooooooo .. oooooooooooooo",
"oooooooooooooo .. oooooooooooooo",
"oooooooooooooo .. oooooooooooooo",
"oooooooooooooo .. oooooooooooooo",
"oooooooooooooo .. oooooooooooooo",
"oooooooooooooo .X oooooooooooooo",
"oooooooooooooo .. oooooooooooooo",
"oooooooooooooo X. oooooooooooooo",
"ooooooooooooooo  ooooooooooooooo"
};
