/* XPM */
static char *result[] = {
/* columns rows colors chars-per-pixel */
"32 32 4 1 ",
"  c #BFA100",
". c gold",
"X c white",
"o c None",
/* pixels */
"oooooooooooo   . ooooooooooooooo",
"ooooooooooo  ..    ooooooooooooo",
"ooooooooooo . XX.. ooooooooooooo",
"ooooooooooo . XX.. ooooooooooooo",
"ooooooooooo . .XX. ooooooooooooo",
"ooooooooooo . .XX. ooooooooooooo",
"ooooooooooo . ..XX ooooooooooooo",
"ooooooooooo . ..XX ooooooooooooo",
"ooooooooooo . ...X ooooooooooooo",
"ooooooooooo . ...X ooooooooooooo",
"ooooooooooo . X  . ooooooooooooo",
"ooooooooooo .      ooooooooooooo",
"ooooooooooo .  X.  ooooooooooooo",
"ooooooooooo .  X.  ooooooooooooo",
"ooooooooooo .  X.  ooooooooooooo",
"ooooooooooo .  XX  ooooooooooooo",
"ooooooooooo .  .X  ooooooooooooo",
"ooooooooooo .  .X  ooooooooooooo",
"ooooooooooo .  .X  ooooooooooooo",
"ooooooooooo .  .X  ooooooooooooo",
"ooooooooooo .  ..  ooooooooooooo",
"ooooooooooo .      ooooooooooooo",
"ooooooooooo . X  . ooooooooooooo",
"ooooooooooo . XX.. ooooooooooooo",
"ooooooooooo . XX.X ooooooooooooo",
"ooooooooooo . .X.. ooooooooooooo",
"ooooooooooo . .XX. ooooooooooooo",
"ooooooooooo . .XX. ooooooooooooo",
"ooooooooooo . X.X. ooooooooooooo",
"ooooooooooo . ..X. ooooooooooooo",
"ooooooooooo ..     ooooooooooooo",
"oooooooooooo ..  ooooooooooooooo"
};
