/* XPM */
static char *result[] = {
/* columns rows colors chars-per-pixel */
"32 32 4 1 ",
"  c #BFA100",
". c gold",
"X c white",
"o c None",
/* pixels */
"oooooooooooooo      oooooooooooo",
"oooooooooooooo     . ooooooooooo",
"ooooooooooooo XX.. . ooooooooooo",
"ooooooooooooo XX.. . ooooooooooo",
"ooooooooooooo .XX. . ooooooooooo",
"ooooooooooooo .XX. . ooooooooooo",
"ooooooooooooo ..XX . ooooooooooo",
"ooooooooooooo ..XX . ooooooooooo",
"ooooooooooooo ...X . ooooooooooo",
"ooooooooooooo ...X . ooooooooooo",
"ooooooooooooo X  . . ooooooooooo",
"ooooooooooooo      . ooooooooooo",
"ooooooooooooo  X.  . ooooooooooo",
"ooooooooooooo  X.  . ooooooooooo",
"ooooooooooooo  X.  . ooooooooooo",
"ooooooooooooo  XX  . ooooooooooo",
"ooooooooooooo  .X  . ooooooooooo",
"ooooooooooooo  .X  . ooooooooooo",
"ooooooooooooo  .X  . ooooooooooo",
"ooooooooooooo  .X  . ooooooooooo",
"ooooooooooooo  ..  . ooooooooooo",
"ooooooooooooo      . ooooooooooo",
"ooooooooooooo X  . . ooooooooooo",
"ooooooooooooo XX.. . ooooooooooo",
"ooooooooooooo XX.X . ooooooooooo",
"ooooooooooooo .X.. . ooooooooooo",
"ooooooooooooo .XX. . ooooooooooo",
"ooooooooooooo .XX. . ooooooooooo",
"ooooooooooooo X.X. . ooooooooooo",
"ooooooooooooo ..X. . ooooooooooo",
"oooooooooooooo     . ooooooooooo",
"ooooooooooooooo     oooooooooooo"
};
