/* XPM */
static char *result[] = {
/* columns rows colors chars-per-pixel */
"32 32 4 1 ",
"  c #BFA100",
". c gold",
"X c white",
"o c None",
/* pixels */
"oooooooooo              . oooooo",
"oooooooooo ......XXX..   . ooooo",
"ooooooooo XXX.....XXX... . ooooo",
"ooooooooo .XXX.....XXX.. . ooooo",
"ooooooooo ..XXX.....XXX. . ooooo",
"ooooooooo ...XX......XXX . ooooo",
"ooooooooo ....XX......XX . ooooo",
"ooooooooo XX..XXX......X . ooooo",
"ooooooooo XX...XXX...... . ooooo",
"ooooooooo XXX...XXX..... . ooooo",
"ooooooooo .XX.      X... . ooooo",
"ooooooooo .XX        ... . ooooo",
"ooooooooo ..X ....XX X.. . ooooo",
"ooooooooo ..X XX...X XX. . ooooo",
"ooooooooo X.. XX.... XXX . ooooo",
"ooooooooo X.. XXX... .XX . ooooo",
"ooooooooo X.. .XXX.. ..X . ooooo",
"ooooooooo X.. ..XXX. ... . ooooo",
"ooooooooo X.. ..XXX. ... . ooooo",
"ooooooooo X.. ...XXX ... . ooooo",
"ooooooooo ... ....XX ... . ooooo",
"ooooooooo ...        XX. . ooooo",
"ooooooooo ....      XXXX . ooooo",
"ooooooooo ...........XXX . ooooo",
"ooooooooo ............XX . ooooo",
"ooooooooo .............X . ooooo",
"ooooooooo XX............ . ooooo",
"ooooooooo XXX........... . ooooo",
"ooooooooo .XXXX......X.. . ooooo",
"oooooooooo .XXXX....X... . ooooo",
"ooooooooooo ..XX....... .. ooooo",
"ooooooooooo               oooooo"
};
