/* XPM */
static char *result[] = {
/* columns rows colors chars-per-pixel */
"32 32 4 1 ",
"  c #BFA100",
". c gold",
"X c white",
"o c None",
/* pixels */
"oooooo .                oooooooo",
"ooooo .  ....XXXXXX.....  oooooo",
"oooo . ..XXX..XXXXXX...X.. ooooo",
"oooo . ..X.X...XXXXXX..X.. ooooo",
"oooo . .X.......XXXXXX..X. ooooo",
"oooo . ..........XXXXXX... ooooo",
"oooo . XX.........XXXXXX.. ooooo",
"oooo . XX..........XXXXXX. ooooo",
"oooo . XXX...........XXXXX ooooo",
"oooo . XXX............XXXX ooooo",
"oooo . XXXX.          oXXX ooooo",
"oooo . .XXX            .XX ooooo",
"oooo . .XXX  ........  ..X ooooo",
"oooo . .XXX  ........  ... ooooo",
"oooo . ..XX  ........  ... ooooo",
"oooo . X.XX  X.......  ... ooooo",
"oooo . X.XX  XX......  ... ooooo",
"oooo . X..X  XX......  ... ooooo",
"oooo . X..X  XXX.....  ..X ooooo",
"oooo . X...  XXX.....  ..X ooooo",
"oooo . X...  XXXX....  ... ooooo",
"oooo . ....            ... ooooo",
"oooo . .....          .... ooooo",
"oooo . ........XXXXX...... ooooo",
"oooo . XX.......XXXXX..... ooooo",
"oooo . XXX.......XXXXX.... ooooo",
"oooo . XXXX.......XXXX.... ooooo",
"oooo . XXXXXX.....XXXXX.X. ooooo",
"oooo . .XXXXXX.....XXXXX.X ooooo",
"oooo . ..XXXXXX.....XXXX.X ooooo",
"ooooo .. .XXXXX......XXX  oooooo",
"oooooo ..               oooooooo"
};
