/* XPM */
static char *result[] = {
/* columns rows colors chars-per-pixel */
"32 32 4 1 ",
"  c #BFA100",
". c gold",
"X c white",
"o c None",
/* pixels */
"ooooooooooo .      ooooooooooooo",
"ooooooooo  . XX.... oooooooooooo",
"ooooooooo . XXXX..X. ooooooooooo",
"ooooooooo . .XXXX.X. ooooooooooo",
"ooooooooo . ..XXXX.. ooooooooooo",
"ooooooooo . X..XXXX. ooooooooooo",
"ooooooooo . ....XXXX ooooooooooo",
"ooooooooo . .....XXX ooooooooooo",
"ooooooooo . ......XX ooooooooooo",
"ooooooooo . X......X ooooooooooo",
"ooooooooo . XX    .. ooooooooooo",
"ooooooooo . X      . ooooooooooo",
"ooooooooo . . XX.. . ooooooooooo",
"ooooooooo . . XXX. . ooooooooooo",
"ooooooooo . . .XX. . ooooooooooo",
"ooooooooo . . .XXX . ooooooooooo",
"ooooooooo . . ..XX . ooooooooooo",
"ooooooooo . . ..XX X ooooooooooo",
"ooooooooo . . ...X X ooooooooooo",
"ooooooooo . . ...X X ooooooooooo",
"ooooooooo . . .... X ooooooooooo",
"ooooooooo . X      . ooooooooooo",
"ooooooooo . XX    .. ooooooooooo",
"ooooooooo . XXXX.... ooooooooooo",
"ooooooooo . .XXX...X ooooooooooo",
"ooooooooo . ..XXX... ooooooooooo",
"ooooooooo . ...XXX.. ooooooooooo",
"ooooooooo . X..XXX.. ooooooooooo",
"ooooooooo . .X..XXX. ooooooooooo",
"ooooooooo . ..X..XX. ooooooooooo",
"ooooooooo  . .....X oooooooooooo",
"ooooooooooo.       ooooooooooooo"
};
