/* XPM */
static char *result[] = {
/* columns rows colors chars-per-pixel */
"32 32 4 1 ",
"  c #BFA100",
". c gold",
"X c white",
"o c None",
/* pixels */
"oooooooooo .        oooooooooooo",
"ooooooooo . ...XX...  oooooooooo",
"oooooooo . ..X..XXX... ooooooooo",
"oooooooo . .X....XXX.. ooooooooo",
"oooooooo . .......XX.. ooooooooo",
"oooooooo . .......XXX. ooooooooo",
"oooooooo . ........XXX ooooooooo",
"oooooooo . X........XX ooooooooo",
"oooooooo . XX........X ooooooooo",
"oooooooo . XXX........ ooooooooo",
"oooooooo . XXX     ... ooooooooo",
"oooooooo . .X       .. ooooooooo",
"oooooooo . .. XXX.. .X ooooooooo",
"oooooooo . .. .XXX. .X ooooooooo",
"oooooooo . X. .XXX. .X ooooooooo",
"oooooooo . X. ..XXX .. ooooooooo",
"oooooooo . X. ..XXX .. ooooooooo",
"oooooooo . X. ...XX .. ooooooooo",
"oooooooo . X. ...XX X. ooooooooo",
"oooooooo . X. ....X XX ooooooooo",
"oooooooo . .. ....X XX ooooooooo",
"oooooooo . ..       XX ooooooooo",
"oooooooo . ...     .XX ooooooooo",
"oooooooo . XX........X ooooooooo",
"oooooooo . XXX........ ooooooooo",
"oooooooo . XXXX....... ooooooooo",
"oooooooo . .XXXX...... ooooooooo",
"oooooooo . ..XXXX....X ooooooooo",
"oooooooo . .X.XXXX...X ooooooooo",
"oooooooo . X.X.XXXXX.. ooooooooo",
"ooooooooo   X...XXX.  oooooooooo",
"ooooooooooo         oooooooooooo"
};
