/* XPM */
static char *result[] = {
/* columns rows colors chars-per-pixel */
"32 32 4 1 ",
"  c #BFA100",
". c gold",
"X c white",
"o c None",
/* pixels */
"ooooo                      ooooo",
"ooo   ...........XXXXXX....  ooo",
"o   ...XXX........XXXXXX..... oo",
"o . ..X............XXXXXX.... oo",
"o . .X..............XXXXXX... oo",
"o . .................XXXXXX.. oo",
"o . ..................XXXXXX. oo",
"o . ....................XXXXX oo",
"o . .....................XXXX oo",
"o . XX....             ...XXX oo",
"o . XXX..               ...XX oo",
"o . XXX..  ...........  ....X oo",
"o . XXXX.  ...........  ..... oo",
"o . XXXXX  ...........  ..... oo",
"o . .XXXX  ...........  ..... oo",
"o . .XXXX  ...........  ..... oo",
"o . ..XXX  XX.........  ..... oo",
"o . ..XXX  XXX........  ..... oo",
"o . ...XX  XXX........  ..... oo",
"o . ...XX  XXXX.......  ..... oo",
"o . ....X  XXXXX......  ..... oo",
"o . .....  XXXXX......  ..... oo",
"o . .....               ..... oo",
"o . ......             ...... oo",
"o . XX......XXXXXXX.......... oo",
"o . XXX......XXXXXXX......... oo",
"o . XXXX......XXXXXXX.......X oo",
"o . .XXXX......XXXXXX......X. oo",
"o . .XXXXX......XXXXXX.....X. oo",
"o . ..XXXXX......XXXXXX...X.. oo",
"o .   .XXXX.......XXXXX....  ooo",
"oo ..                      ooooo"
};
