/* XPM */
static char *result[] = {
/* columns rows colors chars-per-pixel */
"32 32 4 1 ",
"  c #BFA100",
". c gold",
"X c white",
"o c None",
/* pixels */
"oooooooo                    oooo",
"ooooooo  ....XXXXXX.....  .. ooo",
"oooooo ..XXX..XXXXXX...X.. . ooo",
"oooooo ..X.X...XXXXXX..X.. . ooo",
"oooooo .X.......XXXXXX..X. . ooo",
"oooooo ..........XXXXXX... . ooo",
"oooooo XX.........XXXXXX.. . ooo",
"oooooo XX..........XXXXXX. . ooo",
"oooooo XXX...........XXXXX . ooo",
"oooooo XXX............XXXX . ooo",
"oooooo XXXX.          .XXX . ooo",
"oooooo .XXX            .XX . ooo",
"oooooo .XXX  ........  ..X . ooo",
"oooooo .XXX  ........  ... . ooo",
"oooooo ..XX  ........  ... . ooo",
"oooooo X.XX  X.......  ... . ooo",
"oooooo X.XX  XX......  ... . ooo",
"oooooo X..X  XX......  ... . ooo",
"oooooo X..X  XXX.....  ..X . ooo",
"oooooo X...  XXX.....  ..X . ooo",
"oooooo X...  XXXX....  ... . ooo",
"oooooo ....            ... . ooo",
"oooooo .....          .... . ooo",
"oooooo ........XXXXX...... . ooo",
"oooooo XX.......XXXXX..... . ooo",
"oooooo XXX.......XXXXX.... . ooo",
"oooooo XXXX.......XXXX.... . ooo",
"oooooo XXXXXX.....XXXXX.X. . ooo",
"oooooo .XXXXXX.....XXXXX.X . ooo",
"oooooo ..XXXXXX.....XXXX.X . ooo",
"ooooooo  .XXXXX......XXX  .. ooo",
"ooooooooo                .  oooo"
};
