/* XPM */
static char *result[] = {
/* columns rows colors chars-per-pixel */
"32 32 4 1 ",
"  c #BFA100",
". c gold",
"X c white",
"o c None",
/* pixels */
"ooooooooooooo        ooooooooooo",
"oooooooooooo XX....    ooooooooo",
"ooooooooooo XXXX..X. . ooooooooo",
"ooooooooooo .XXXX.X. . ooooooooo",
"ooooooooooo ..XXXX.. . ooooooooo",
"ooooooooooo X..XXXX. . ooooooooo",
"ooooooooooo ....XXXX . ooooooooo",
"ooooooooooo .....XXX . ooooooooo",
"ooooooooooo ......XX . ooooooooo",
"ooooooooooo X......X . ooooooooo",
"ooooooooooo XX    .. . ooooooooo",
"ooooooooooo X      . . ooooooooo",
"ooooooooooo . XX.. . . ooooooooo",
"ooooooooooo . XXX. . . ooooooooo",
"ooooooooooo . .XX. . . ooooooooo",
"ooooooooooo . .XXX . . ooooooooo",
"ooooooooooo . ..XX . . ooooooooo",
"ooooooooooo . ..XX X . ooooooooo",
"ooooooooooo . ...X X . ooooooooo",
"ooooooooooo . ...X X . ooooooooo",
"ooooooooooo . .... X . ooooooooo",
"ooooooooooo X      . . ooooooooo",
"ooooooooooo XX    .. . ooooooooo",
"ooooooooooo XXXX.... . ooooooooo",
"ooooooooooo .XXX...X . ooooooooo",
"ooooooooooo ..XXX... . ooooooooo",
"ooooooooooo ...XXX.. . ooooooooo",
"ooooooooooo X..XXX.. . ooooooooo",
"ooooooooooo .X..XXX. . ooooooooo",
"ooooooooooo ..X..XX. . ooooooooo",
"oooooooooooo .....X .  ooooooooo",
"oooooooooooo         ooooooooooo"
};
