/* XPM */
static char *result[] = {
/* columns rows colors chars-per-pixel */
"32 32 4 1 ",
"  c #BFA100",
". c gold",
"X c white",
"o c None",
/* pixels */
"oooo                       .  oo",
"oo   ...........XXXXXX....  .  o",
"oo ...XXX........XXXXXX..... . o",
"oo ..X............XXXXXX.... . o",
"oo .X..............XXXXXX... . o",
"oo .................XXXXXX.. . o",
"oo ..................XXXXXX. . o",
"oo ....................XXXXX . o",
"oo .....................XXXX . o",
"oo XX....             ...XXX . o",
"oo XXX..               ...XX . o",
"oo XXX..  ...........  ....X . o",
"oo XXXX.  ...........  ..... . o",
"oo XXXXX  ...........  ..... . o",
"oo .XXXX  ...........  ..... . o",
"oo .XXXX  ...........  ..... . o",
"oo ..XXX  XX.........  ..... . o",
"oo ..XXX  XXX........  ..... . o",
"oo ...XX  XXX........  ..... . o",
"oo ...XX  XXXX.......  ..... . o",
"oo ....X  XXXXX......  ..... . o",
"oo .....  XXXXX......  ..... . o",
"oo .....               ..... . o",
"oo ......             ...... . o",
"oo XX......XXXXXXX.......... . o",
"oo XXX......XXXXXXX......... . o",
"oo XXXX......XXXXXXX.......X . o",
"oo .XXXX......XXXXXX......X. . o",
"oo .XXXXX......XXXXXX.....X. . o",
"oo ..XXXXX......XXXXXX...X. .. o",
"oo   .XXXX.......XXXXX.... ..  o",
"oooo                      .. ooo"
};
