/* XPM */
static char *result[] = {
/* columns rows colors chars-per-pixel */
"32 32 4 1 ",
"  c #BFA100",
". c gold",
"X c white",
"o c None",
/* pixels */
"ooooooooo.            oooooooooo",
"oooooooo . ......XXX..  oooooooo",
"ooooooo . XXX.....XXX... ooooooo",
"oooooo .. .XXX.....XXX.. ooooooo",
"oooooo .. ..XXX.....XXX. ooooooo",
"oooooo .. ...XX......XXX ooooooo",
"oooooo .. ....XX......XX ooooooo",
"oooooo .. XX..XXX......X ooooooo",
"oooooo .. XX...XXX...... ooooooo",
"oooooo .. XXX...XXX..... ooooooo",
"oooooo .. .XX.      X... ooooooo",
"oooooo .. .XX        ... ooooooo",
"oooooo .. ..X ....XX X.. ooooooo",
"oooooo .. ..X XX...X XX. ooooooo",
"oooooo .. X.. XX.... XXX ooooooo",
"oooooo .. X.. XXX... .XX ooooooo",
"oooooo .. X.. .XXX.. ..X ooooooo",
"oooooo .. X.. ..XXX. ... ooooooo",
"oooooo .. X.. ..XXX. ... ooooooo",
"oooooo .. X.. ...XXX ... ooooooo",
"oooooo .. ... ....XX ... ooooooo",
"oooooo .. ...        XX. ooooooo",
"oooooo .. ....      XXXX ooooooo",
"oooooo .. ...........XXX ooooooo",
"oooooo .. ............XX ooooooo",
"oooooo .. .............X ooooooo",
"oooooo .. XX............ ooooooo",
"oooooo .. XXX........... ooooooo",
"oooooo .. .XXXX......X.. ooooooo",
"ooooooo .. .XXXX....X... ooooooo",
"oooooooo .. ..XX......  oooooooo",
"ooooooooo .           oooooooooo"
};
