/* XPM */
static char *result[] = {
/* columns rows colors chars-per-pixel */
"32 32 4 1 ",
"  c #BFA100",
". c gold",
"X c white",
"o c None",
/* pixels */
"oooooooooooo          oooooooooo",
"ooooooooooo ...XX...    oooooooo",
"oooooooooo ..X..XXX...   ooooooo",
"oooooooooo .X....XXX.. . ooooooo",
"oooooooooo .......XX.. . ooooooo",
"oooooooooo .......XXX. . ooooooo",
"oooooooooo ........XXX . ooooooo",
"oooooooooo X........XX . ooooooo",
"oooooooooo XX........X . ooooooo",
"oooooooooo XXX........ . ooooooo",
"oooooooooo XXX     ... . ooooooo",
"oooooooooo .X       .. . ooooooo",
"oooooooooo .. XXX.. .X . ooooooo",
"oooooooooo .. .XXX. .X . ooooooo",
"oooooooooo X. .XXX. .X . ooooooo",
"oooooooooo X. ..XXX .. . ooooooo",
"oooooooooo X. ..XXX .. . ooooooo",
"oooooooooo X. ...XX .. . ooooooo",
"oooooooooo X. ...XX X. . ooooooo",
"oooooooooo X. ....X XX . ooooooo",
"oooooooooo .. ....X XX . ooooooo",
"oooooooooo ..       XX . ooooooo",
"oooooooooo ...     .XX . ooooooo",
"oooooooooo XX........X . ooooooo",
"oooooooooo XXX........ . ooooooo",
"oooooooooo XXXX....... . ooooooo",
"oooooooooo .XXXX...... . ooooooo",
"oooooooooo ..XXXX....X . ooooooo",
"oooooooooo .X.XXXX...X . ooooooo",
"oooooooooo X.X.XXXXX.. . ooooooo",
"oooooooooo  X...XXX.    oooooooo",
"ooooooooooo           oooooooooo"
};
