/* XPM */
static char *result[] = {
/* columns rows colors chars-per-pixel */
"32 32 5 1 ",
"  c #180E0E",
". c #5A595A",
"X c #B3B1B3",
"o c white",
"O c None",
/* pixels */
"OOOOOOOOOOOOOOOOOOOOOOOOOOOOOOOO",
"OOOOOOOOOOOOOOOOOOOOOOOOOOOOOOOO",
"OOOOOOOOOOOOOOOOOOOOOOOOOOOOOOOO",
"OOOOOOOOOOOOOOOOOOOOOOOOOOOOOOOO",
"OOOOOOOOOOOOOOOOOOOOOOOOOOOOOOOO",
"OOOOOOOOOOOOOOOOOOOOOOOOOOOOOOOO",
"OOOOOOOOOOOOOOOOOOOOOOOOOOOOOOOO",
"OOOOOOOOOOOOOOOOOOOOOOOOOOOOOOOO",
"OOOOOOOOOOOOOO    OOOOOOOOOOOOOO",
"OOOOOOOOOOOO  oooo  OOOOOOOOOOOO",
"OOOOOOOOOOO ooXXXXoo OOOOOOOOOOO",
"OOOOOOOOOO oXXXXXooXo OOOOOOOOOO",
"OOOOOOOOO oXXXXoooXoX. OOOOOOOOO",
"OOOOOOOOO oXXXooo.oXX. OOOOOOOOO",
"OOOOOOOOO oXXoooXoXXX. OOOOOOOOO",
"OOOOOOOOO oXXooXo.XXX. OOOOOOOOO",
"OOOOOOOOO oXooooX.XXX. OOOOOOOOO",
"OOOOOOOOO oooXoXX.XXX. OOOOOOOOO",
"OOOOOOOOO ooXooXX.XXX. OOOOOOOOO",
"OOOOOOOOO oXoXX..XXXX. OOOOOOOOO",
"OOOOOOOOOO oXXXXXXXX. OOOOOOOOOO",
"OOOOOOOOOOO ooXXXX.. OOOOOOOOOOO",
"OOOOOOOOOOOO  ....  OOOOOOOOOOOO",
"OOOOOOOOOOOOOO    OOOOOOOOOOOOOO",
"OOOOOOOOOOOOOOOOOOOOOOOOOOOOOOOO",
"OOOOOOOOOOOOOOOOOOOOOOOOOOOOOOOO",
"OOOOOOOOOOOOOOOOOOOOOOOOOOOOOOOO",
"OOOOOOOOOOOOOOOOOOOOOOOOOOOOOOOO",
"OOOOOOOOOOOOOOOOOOOOOOOOOOOOOOOO",
"OOOOOOOOOOOOOOOOOOOOOOOOOOOOOOOO",
"OOOOOOOOOOOOOOOOOOOOOOOOOOOOOOOO",
"OOOOOOOOOOOOOOOOOOOOOOOOOOOOOOOO"
};
