/* XPM */
static char *result[] = {
/* columns rows colors chars-per-pixel */
"32 32 5 1 ",
"  c #180E0E",
". c #5A595A",
"X c #B3B1B3",
"o c white",
"O c None",
/* pixels */
"OOOOOOOOOOOOOOOOOOOOOOOOOOOOOOOO",
"OOOOOOOOOOOOOOOOOOOOOOOOOOOOOOOO",
"OOOOOOOOOOOOOOOOOOOOOOOOOOOOOOOO",
"OOOOOOOOOOOOOOOOOOOOOOOOOOOOOOOO",
"OOOOOOOOOOOOOOOOOOOOOOOOOOOOOOOO",
"OOOOOOOOOOOOOOOOOOOOOOOOOOOOOOOO",
"OOOOOOOOOOOOOOOOOOOOOOOOOOOOOOOO",
"OOOOOOOOOOOOOOOOOOOOOOOOOOOOOOOO",
"OOOOOOOOOOOOOO    OOOOOOOOOOOOOO",
"OOOOOOOOOOOOO oooo OOOOOOOOOOOOO",
"OOOOOOOOOOOO ooXoX. OOOOOOOOOOOO",
"OOOOOOOOOOOO oXoXX. OOOOOOOOOOOO",
"OOOOOOOOOOO oXoooXX. OOOOOOOOOOO",
"OOOOOOOOOOO ooXo.XX. OOOOOOOOOOO",
"OOOOOOOOOOO oXoo.XX. OOOOOOOOOOO",
"OOOOOOOOOOO oXXo.XX. OOOOOOOOOOO",
"OOOOOOOOOOO oXXo.XX. OOOOOOOOOOO",
"OOOOOOOOOOO oXXo.XX. OOOOOOOOOOO",
"OOOOOOOOOOO oXXo.XX. OOOOOOOOOOO",
"OOOOOOOOOOO oXX..XX. OOOOOOOOOOO",
"OOOOOOOOOOO oXXXXXX. OOOOOOOOOOO",
"OOOOOOOOOOOO oXXXX. OOOOOOOOOOOO",
"OOOOOOOOOOOOO .... OOOOOOOOOOOOO",
"OOOOOOOOOOOOOO    OOOOOOOOOOOOOO",
"OOOOOOOOOOOOOOOOOOOOOOOOOOOOOOOO",
"OOOOOOOOOOOOOOOOOOOOOOOOOOOOOOOO",
"OOOOOOOOOOOOOOOOOOOOOOOOOOOOOOOO",
"OOOOOOOOOOOOOOOOOOOOOOOOOOOOOOOO",
"OOOOOOOOOOOOOOOOOOOOOOOOOOOOOOOO",
"OOOOOOOOOOOOOOOOOOOOOOOOOOOOOOOO",
"OOOOOOOOOOOOOOOOOOOOOOOOOOOOOOOO",
"OOOOOOOOOOOOOOOOOOOOOOOOOOOOOOOO"
};
