/* XPM */
static char *result[] = {
/* columns rows colors chars-per-pixel */
"32 32 5 1 ",
"  c #180E0E",
". c #5A595A",
"X c #B3B1B3",
"o c white",
"O c None",
/* pixels */
"OOOOOOOOOOOOOOOOOOOOOOOOOOOOOOOO",
"OOOOOOOOOOOOOOOOOOOOOOOOOOOOOOOO",
"OOOOOOOOOOOOOOOOOOOOOOOOOOOOOOOO",
"OOOOOOOOOOOOOOOOOOOOOOOOOOOOOOOO",
"OOOOOOOOOOOOOOOOOOOOOOOOOOOOOOOO",
"OOOOOOOOOOOOOOOOOOOOOOOOOOOOOOOO",
"OOOOOOOOOOOOOOOOOOOOOOOOOOOOOOOO",
"OOOOOOOOOOOOOOOOOOOOOOOOOOOOOOOO",
"OOOOOOOOOOOOOO    OOOOOOOOOOOOOO",
"OOOOOOOOOOOO  oooo OOOOOOOOOOOOO",
"OOOOOOOOOOO ooXXXXX OOOOOOOOOOOO",
"OOOOOOOOOO oXXXXXXX. OOOOOOOOOOO",
"OOOOOOOOO oXXXXoXXXoo OOOOOOOOOO",
"OOOOOOOOO oXXXoX.Xoo. OOOOOOOOOO",
"OOOOOOOOO oXXoXX.ooXo OOOOOOOOOO",
"OOOOOOOOO oXXXoXooXo. OOOOOOOOOO",
"OOOOOOOOO oXXXoooXoX. OOOOOOOOOO",
"OOOOOOOOO oXXXoo.oXX. OOOOOOOOOO",
"OOOOOOOOO oXXooXoXXX. OOOOOOOOOO",
"OOOOOOOOO oXooXoXXXX. OOOOOOOOOO",
"OOOOOOOOOO ooXoXXXX. OOOOOOOOOOO",
"OOOOOOOOOOO ooXXXX. OOOOOOOOOOOO",
"OOOOOOOOOOOO  .... OOOOOOOOOOOOO",
"OOOOOOOOOOOOOO    OOOOOOOOOOOOOO",
"OOOOOOOOOOOOOOOOOOOOOOOOOOOOOOOO",
"OOOOOOOOOOOOOOOOOOOOOOOOOOOOOOOO",
"OOOOOOOOOOOOOOOOOOOOOOOOOOOOOOOO",
"OOOOOOOOOOOOOOOOOOOOOOOOOOOOOOOO",
"OOOOOOOOOOOOOOOOOOOOOOOOOOOOOOOO",
"OOOOOOOOOOOOOOOOOOOOOOOOOOOOOOOO",
"OOOOOOOOOOOOOOOOOOOOOOOOOOOOOOOO",
"OOOOOOOOOOOOOOOOOOOOOOOOOOOOOOOO"
};
