/* XPM */
static char *result[] = {
/* columns rows colors chars-per-pixel */
"32 32 5 1 ",
"  c #180E0E",
". c #5A595A",
"X c #B3B1B3",
"o c white",
"O c None",
/* pixels */
"OOOOOOOOOOOOOOOOOOOOOOOOOOOOOOOO",
"OOOOOOOOOOOOOOOOOOOOOOOOOOOOOOOO",
"OOOOOOOOOOOOOOOOOOOOOOOOOOOOOOOO",
"OOOOOOOOOOOOOOOOOOOOOOOOOOOOOOOO",
"OOOOOOOOOOOOOOOOOOOOOOOOOOOOOOOO",
"OOOOOOOOOOOOOOOOOOOOOOOOOOOOOOOO",
"OOOOOOOOOOOOOOOOOOOOOOOOOOOOOOOO",
"OOOOOOOOOOOOOOOOOOOOOOOOOOOOOOOO",
"OOOOOOOOOOOOOO    OOOOOOOOOOOOOO",
"OOOOOOOOOOOOO oooo OOOOOOOOOOOOO",
"OOOOOOOOOOOO oXXXX. OOOOOOOOOOOO",
"OOOOOOOOOOOO oXXXX. OOOOOOOOOOOO",
"OOOOOOOOOOO oXXooXX. OOOOOOOOOOO",
"OOOOOOOOOOO oXXo.XX. OOOOOOOOOOO",
"OOOOOOOOOOO oXoo.XX. OOOOOOOOOOO",
"OOOOOOOOOOO oXXo.XX. OOOOOOOOOOO",
"OOOOOOOOOOO oXXo.XX. OOOOOOOOOOO",
"OOOOOOOOOOO oXXo.XXo OOOOOOOOOOO",
"OOOOOOOOOOO oXXo.Xoo OOOOOOOOOOO",
"OOOOOOOOOOO oXX..oo. OOOOOOOOOOO",
"OOOOOOOOOOO oXXXooXo OOOOOOOOOOO",
"OOOOOOOOOOOO oXooXo OOOOOOOOOOOO",
"OOOOOOOOOOOOO oo.o OOOOOOOOOOOOO",
"OOOOOOOOOOOOOO    OOOOOOOOOOOOOO",
"OOOOOOOOOOOOOOOOOOOOOOOOOOOOOOOO",
"OOOOOOOOOOOOOOOOOOOOOOOOOOOOOOOO",
"OOOOOOOOOOOOOOOOOOOOOOOOOOOOOOOO",
"OOOOOOOOOOOOOOOOOOOOOOOOOOOOOOOO",
"OOOOOOOOOOOOOOOOOOOOOOOOOOOOOOOO",
"OOOOOOOOOOOOOOOOOOOOOOOOOOOOOOOO",
"OOOOOOOOOOOOOOOOOOOOOOOOOOOOOOOO",
"OOOOOOOOOOOOOOOOOOOOOOOOOOOOOOOO"
};
